# xmcd CD database file
#
# Track frame offsets:
#	150
#	13741
#	25646
#	37880
#	50110
#	61176
#	76780
#	90371
#	102900
#	111239
#	126805
#	138864
#
# Disc length: 1994 seconds
#
# Revision: 0
# Processed by: cddbd v1.4PL0 Copyright (c) Steve Scherf et al.
# Submitted via: CDex 1.50beta8
#
DISCID=8b07c80c
DTITLE=Συλλογές - Μια Βραδιά Με Τα Αυθεντικά
DYEAR=2002
DGENRE=Λαϊκό
TTITLE0=Simera
TTITLE1=Mia Kardia Gia Senane
TTITLE2=Kamaroula Mia Stalia
TTITLE3=Agkalia Kai Plai Plai
TTITLE4=Ston Orano Einai Ena Asteri
TTITLE5=Malista Kyrie
TTITLE6=O Ksenixtis
TTITLE7=Paidi Tis Nyxtas
TTITLE8=Logia Logia Logia
TTITLE9=Se Efxaristo
TTITLE10=Pou Pas Xoris Agapi
TTITLE11=Paei Paei
EXTD=YEAR: 2002
EXTT0=
EXTT1=
EXTT2=
EXTT3=
EXTT4=
EXTT5=
EXTT6=
EXTT7=
EXTT8=
EXTT9=
EXTT10=
EXTT11=
PLAYORDER=
